. 
  
http://www.torrenting.com/        :     Greatest Movie Tracker on The Net!!!
 
http://www.Torrenting.com          :     Once & For all ;)


               www . Torrenting . Com 

(((((((((((((= Enjoy No RAR releases =))))))))))))))))))))


...................................NFO:....................................

.[img]http://img202.imageshack.us/img202/8646/image4lll.jpg[/img]

SAMURAi Presents to you:
Mr.Poppers.Penguins.2011.BRRip.XviD.AC3-SAMURAi


Source: Bluray
Video: 720x384 @bitrate 1621 @2pass
Audio: English DTS to AC3 5.1 @448
Sample: yes, included  
http://www.imdb.com/title/tt1396218/


General
Complete name                    : Mr.Poppers.Penguins.2011.BRRip.XviD.AC3-SAMURAi.avi
Format                           : AVI
Format/Info                      : Audio Video Interleave
File size                        : 1.37 GiB
Duration                         : 1h 34mn
Overall bit rate                 : 2 079 Kbps
Writing application              : Nandub v1.0rc2
Writing library                  : Nandub build 1852/release

Video
ID                               : 0
Format                           : MPEG-4 Visual
Format profile                   : Advanced Simple@L5
Format settings, BVOP            : 2
Format settings, QPel            : No
Format settings, GMC             : No warppoints
Format settings, Matrix          : Default (H.263)
Muxing mode                      : Packed bitstream
Codec ID                         : XVID
Codec ID/Hint                    : XviD
Duration                         : 1h 34mn
Bit rate                         : 1 621 Kbps
Width                            : 720 pixels
Height                           : 384 pixels
Display aspect ratio             : 1.875
Frame rate                       : 23.976 fps
Color space                      : YUV
Chroma subsampling               : 4:2:0
Bit depth                        : 8 bits
Scan type                        : Progressive
Compression mode                 : Lossy
Bits/(Pixel*Frame)               : 0.245
Stream size                      : 1.07 GiB (78%)
Writing library                  : XviD 64

Audio
ID                               : 1
Format                           : AC-3
Format/Info                      : Audio Coding 3
Mode extension                   : CM (complete main)
Codec ID                         : 2000
Duration                         : 1h 34mn
Bit rate mode                    : Constant
Bit rate                         : 448 Kbps
Channel(s)                       : 6 channels
Channel positions                : Front: L C R, Side: L R, LFE
Sampling rate                    : 48.0 KHz
Bit depth                        : 16 bits
Compression mode                 : Lossy
Stream size                      : 302 MiB (22%)
Alignment                        : Split accross interleaves
Interleave, duration             : 42 ms (1.00 video frame)
Interleave, preload duration     : 500 ms








Plot
The life of a businessman begins to change after he inherits six penguins, and as he 
transforms his apartment into a winter wonderland, his professional side starts to
unravel.



Screenshots
[img]http://img69.imageshack.us/img69/8806/vlcsnap2011100118h05m20.png[/img]
[img]http://img849.imageshack.us/img849/1839/vlcsnap2011100118h05m27.png[/img]
[img]http://img195.imageshack.us/img195/9674/vlcsnap2011100118h05m31.png[/img]
[img]http://img193.imageshack.us/img193/9808/vlcsnap2011100118h05m44.png[/img]

Greetz:
Cm8, Santi, Rx, Noir, Ember, NPW, Unknown, VIP3R, SiC, Flojo, and other
p2p groups come and past!

Contact:
Got any requests or anything to offer?
Contact me at SAMURAi@Hushmail.me